<svg id="Laag_1" data-name="Laag 1" xmlns="http://www.w3.org/2000/svg" viewBox="13.42 12.87 392.72 109.33">
  <defs>
    <style>
      .cls-1 {
        fill: #0f596e;
      }

      .cls-1, .cls-2 {
        stroke-width: 0px;
      }

      .cls-2 {
        fill: #eb6012;
      }
    </style>
  </defs>
  <path class="cls-1" d="M66.95,67.24h11.01v42.72h-6.76c-2.35,0-4.25-1.9-4.25-4.25v-38.46Z"/>
  <path class="cls-1" d="M83.47,88.63c0-13.19,9.99-22.09,22.8-22.09,10.63,0,16.14,5.83,18.96,11.46l-9.48,4.48c-1.41-3.39-5.06-6.21-9.48-6.21-6.66,0-11.59,5.38-11.59,12.36s4.93,12.36,11.59,12.36c4.42,0,8.07-2.82,9.48-6.21l9.48,4.48c-2.75,5.51-8.33,11.46-18.96,11.46-12.81,0-22.8-8.97-22.8-22.09Z"/>
  <path class="cls-1" d="M139.51,76.85h-11.98v-9.61h30.65c2.35,0,4.25,1.9,4.25,4.25v5.35h-11.91v33.11h-11.01v-33.11Z"/>
  <path class="cls-1" d="M60.16,12.87c-3.74,0-6.78,3.04-6.78,6.78v24.53c0,3.74,3.04,6.78,6.78,6.78h24.56c3.74,0,6.78-3.04,6.78-6.78s-3.04-6.78-6.78-6.78h-17.79v-17.75c0-3.74-3.04-6.78-6.78-6.78Z"/>
  <path class="cls-2" d="M20.21,53.69c-3.74,0-6.78,3.04-6.78,6.78s3.04,6.78,6.78,6.78h17.79v17.75c0,3.74,3.04,6.78,6.78,6.78s6.78-3.04,6.78-6.78v-24.53c0-3.74-3.04-6.78-6.78-6.78h-24.56Z"/>
  <g>
    <path class="cls-1" d="M179.61,110.25v-43.19h6.48v43.19h-6.48Z"/>
    <path class="cls-1" d="M233.62,110.25v-20.85c0-3.63-1.62-6.02-5.44-6.02-3.17,0-6.28,2.2-7.77,4.47v22.41h-5.83v-20.85c0-3.63-1.55-6.02-5.5-6.02-3.04,0-6.09,2.27-7.64,4.53v22.34h-5.83v-31.28h5.83v4.4c1.3-1.94,5.44-5.18,10.1-5.18s7.51,2.46,8.48,5.83c1.81-2.91,5.96-5.83,10.56-5.83,5.76,0,8.87,3.17,8.87,9.45v22.6h-5.83Z"/>
    <path class="cls-1" d="M254.53,122.17h-5.83v-43.19h5.83v4.47c2.27-3.11,6.02-5.25,10.23-5.25,8.16,0,13.92,6.15,13.92,16.38s-5.76,16.45-13.92,16.45c-4.08,0-7.71-1.88-10.23-5.31v16.45ZM263.21,83.38c-3.56,0-7.12,2.07-8.68,4.6v13.28c1.55,2.46,5.12,4.6,8.68,4.6,5.83,0,9.39-4.73,9.39-11.27s-3.56-11.2-9.39-11.2Z"/>
    <path class="cls-1" d="M286.07,110.25v-31.28h5.83v4.79c2.4-3.11,6.09-5.5,10.23-5.5v5.89c-.58-.13-1.23-.19-2.01-.19-2.91,0-6.86,2.2-8.22,4.53v21.76h-5.83Z"/>
    <path class="cls-1" d="M306.01,94.58c0-9,6.09-16.38,15.8-16.38s15.8,7.38,15.8,16.38-6.02,16.45-15.8,16.45-15.8-7.38-15.8-16.45ZM331.52,94.58c0-5.89-3.43-11.2-9.71-11.2s-9.71,5.31-9.71,11.2,3.5,11.27,9.71,11.27,9.71-5.31,9.71-11.27Z"/>
    <path class="cls-1" d="M353.28,110.25l-12.89-31.28h6.22l9.78,24.54,9.78-24.54h6.28l-12.89,31.28h-6.28Z"/>
    <path class="cls-1" d="M390.9,78.2c9.39,0,15.22,7.32,15.22,16.9v1.42h-24.74c.45,5.31,4.34,9.71,10.62,9.71,3.3,0,6.93-1.29,9.26-3.69l2.72,3.82c-3.11,3.04-7.51,4.66-12.56,4.66-9.33,0-16.19-6.61-16.19-16.45,0-9.07,6.54-16.38,15.67-16.38ZM381.32,92.31h19.1c-.13-4.14-2.91-9.33-9.52-9.33s-9.26,5.05-9.58,9.33Z"/>
  </g>
</svg>